<svg width="264" height="41" viewBox="0 0 264 41" fill="none" xmlns="http://www.w3.org/2000/svg">
<path d="M20.0001 2.2179L36.1487 36.384H3.85156L20.0001 2.2179Z" fill="#FECD2F"/>
<path fill-rule="evenodd" clip-rule="evenodd" d="M10.4602 32.2672H29.5398L20 12.0835L10.4602 32.2672ZM0 34.6661L16.1486 0.5H23.8514L40 34.6661L36.1486 40.5H3.85141L0 34.6661Z" fill="url(#paint0_linear_197402_16)"/>
<path d="M51.36 33.5L61.32 10.55H61.56L71.52 33.5H66.48L60.12 17.36L63.27 15.2L55.65 33.5H51.36ZM58.17 25.52H64.8L66.33 29.18H56.82L58.17 25.52ZM74.0487 9.83H78.2487V33.5H74.0487V9.83ZM86.8041 34.13C85.6241 34.13 84.6341 33.77 83.8341 33.05C83.0341 32.31 82.6141 31.36 82.5741 30.2V20.39H86.7741V28.64C86.8141 29.22 86.9641 29.69 87.2241 30.05C87.4841 30.39 87.9241 30.56 88.5441 30.56C89.1641 30.56 89.6941 30.35 90.1341 29.93C90.5941 29.51 90.9441 28.94 91.1841 28.22C91.4441 27.48 91.5741 26.65 91.5741 25.73V20.39H95.7741V33.5H91.9641L91.6341 31.1L91.6941 31.37C91.3941 31.91 91.0141 32.39 90.5541 32.81C90.0941 33.23 89.5441 33.55 88.9041 33.77C88.2841 34.01 87.5841 34.13 86.8041 34.13ZM103.874 20.39L104.264 23.99L104.174 23.45C104.554 22.67 105.074 22.01 105.734 21.47C106.394 20.91 107.044 20.48 107.684 20.18C108.344 19.88 108.844 19.73 109.184 19.73L108.974 23.93C107.994 23.81 107.154 23.97 106.454 24.41C105.754 24.85 105.214 25.43 104.834 26.15C104.454 26.87 104.264 27.61 104.264 28.37V33.5H100.094V20.39H103.874ZM117.479 33.86C116.259 33.86 115.149 33.62 114.149 33.14C113.169 32.64 112.389 31.88 111.809 30.86C111.229 29.84 110.939 28.54 110.939 26.96C110.939 25.48 111.239 24.2 111.839 23.12C112.439 22.04 113.229 21.21 114.209 20.63C115.189 20.03 116.229 19.73 117.329 19.73C118.629 19.73 119.609 19.95 120.269 20.39C120.949 20.81 121.509 21.28 121.949 21.8L121.769 22.31L122.159 20.39H126.059V33.5H121.859V30.65L122.189 31.55C122.149 31.55 122.029 31.67 121.829 31.91C121.629 32.13 121.329 32.4 120.929 32.72C120.549 33.02 120.069 33.28 119.489 33.5C118.929 33.74 118.259 33.86 117.479 33.86ZM118.679 30.44C119.179 30.44 119.629 30.37 120.029 30.23C120.429 30.07 120.779 29.85 121.079 29.57C121.379 29.27 121.639 28.9 121.859 28.46V25.25C121.699 24.81 121.459 24.44 121.139 24.14C120.819 23.82 120.439 23.58 119.999 23.42C119.559 23.24 119.069 23.15 118.529 23.15C117.929 23.15 117.369 23.31 116.849 23.63C116.349 23.93 115.949 24.35 115.649 24.89C115.349 25.43 115.199 26.05 115.199 26.75C115.199 27.45 115.359 28.08 115.679 28.64C115.999 29.2 116.419 29.64 116.939 29.96C117.479 30.28 118.059 30.44 118.679 30.44ZM136.927 11.81C139.107 11.81 140.817 12.26 142.057 13.16C143.317 14.04 143.947 15.42 143.947 17.3C143.947 18.44 143.687 19.43 143.167 20.27C142.647 21.11 141.917 21.77 140.977 22.25C140.057 22.73 138.967 23 137.707 23.06L137.287 21.56C138.747 21.6 140.057 21.86 141.217 22.34C142.377 22.82 143.297 23.49 143.977 24.35C144.657 25.21 144.997 26.23 144.997 27.41C144.997 28.49 144.797 29.42 144.397 30.2C143.997 30.96 143.457 31.59 142.777 32.09C142.097 32.57 141.327 32.93 140.467 33.17C139.607 33.39 138.717 33.5 137.797 33.5H131.347V11.81H136.927ZM137.527 21.32C138.727 21.32 139.597 20.99 140.137 20.33C140.677 19.65 140.947 18.83 140.947 17.87C140.947 16.73 140.597 15.9 139.897 15.38C139.197 14.86 138.257 14.6 137.077 14.6H134.257V21.32H137.527ZM137.647 30.8C138.447 30.8 139.177 30.68 139.837 30.44C140.517 30.2 141.047 29.83 141.427 29.33C141.827 28.83 142.027 28.2 142.027 27.44C142.027 26.6 141.797 25.94 141.337 25.46C140.897 24.98 140.327 24.64 139.627 24.44C138.927 24.22 138.207 24.11 137.467 24.11H134.257V30.8H137.647ZM148.121 27.17C148.121 25.93 148.411 24.81 148.991 23.81C149.591 22.81 150.411 22.02 151.451 21.44C152.491 20.86 153.671 20.57 154.991 20.57C156.351 20.57 157.541 20.86 158.561 21.44C159.581 22.02 160.371 22.81 160.931 23.81C161.491 24.81 161.771 25.93 161.771 27.17C161.771 28.41 161.491 29.54 160.931 30.56C160.371 31.56 159.571 32.35 158.531 32.93C157.511 33.51 156.321 33.8 154.961 33.8C153.641 33.8 152.461 33.53 151.421 32.99C150.401 32.43 149.591 31.66 148.991 30.68C148.411 29.68 148.121 28.51 148.121 27.17ZM150.911 27.2C150.911 28 151.091 28.73 151.451 29.39C151.811 30.03 152.291 30.54 152.891 30.92C153.511 31.3 154.191 31.49 154.931 31.49C155.711 31.49 156.401 31.3 157.001 30.92C157.621 30.54 158.101 30.03 158.441 29.39C158.781 28.73 158.951 28 158.951 27.2C158.951 26.4 158.781 25.68 158.441 25.04C158.101 24.38 157.621 23.86 157.001 23.48C156.401 23.08 155.711 22.88 154.931 22.88C154.171 22.88 153.481 23.08 152.861 23.48C152.261 23.88 151.781 24.41 151.421 25.07C151.081 25.71 150.911 26.42 150.911 27.2ZM164.469 27.17C164.469 25.93 164.759 24.81 165.339 23.81C165.939 22.81 166.759 22.02 167.799 21.44C168.839 20.86 170.019 20.57 171.339 20.57C172.699 20.57 173.889 20.86 174.909 21.44C175.929 22.02 176.719 22.81 177.279 23.81C177.839 24.81 178.119 25.93 178.119 27.17C178.119 28.41 177.839 29.54 177.279 30.56C176.719 31.56 175.919 32.35 174.879 32.93C173.859 33.51 172.669 33.8 171.309 33.8C169.989 33.8 168.809 33.53 167.769 32.99C166.749 32.43 165.939 31.66 165.339 30.68C164.759 29.68 164.469 28.51 164.469 27.17ZM167.259 27.2C167.259 28 167.439 28.73 167.799 29.39C168.159 30.03 168.639 30.54 169.239 30.92C169.859 31.3 170.539 31.49 171.279 31.49C172.059 31.49 172.749 31.3 173.349 30.92C173.969 30.54 174.449 30.03 174.789 29.39C175.129 28.73 175.299 28 175.299 27.2C175.299 26.4 175.129 25.68 174.789 25.04C174.449 24.38 173.969 23.86 173.349 23.48C172.749 23.08 172.059 22.88 171.279 22.88C170.519 22.88 169.829 23.08 169.209 23.48C168.609 23.88 168.129 24.41 167.769 25.07C167.429 25.71 167.259 26.42 167.259 27.2ZM181.897 33.5V10.28H184.687V33.5H181.897ZM187.687 25.25L193.387 33.5H190.117L185.827 26.81L187.687 25.25ZM183.817 29.54L183.547 26.87L191.077 20.81L192.787 22.28L183.817 29.54ZM200.318 33.74C199.438 33.74 198.578 33.59 197.738 33.29C196.918 32.97 196.238 32.5 195.698 31.88L196.868 30.26C197.388 30.76 197.918 31.14 198.458 31.4C199.018 31.64 199.568 31.76 200.108 31.76C200.508 31.76 200.878 31.71 201.218 31.61C201.558 31.51 201.828 31.35 202.028 31.13C202.248 30.89 202.358 30.57 202.358 30.17C202.358 29.73 202.208 29.38 201.908 29.12C201.628 28.86 201.258 28.65 200.798 28.49C200.358 28.33 199.888 28.18 199.388 28.04C198.368 27.7 197.588 27.23 197.048 26.63C196.508 26.03 196.238 25.3 196.238 24.44C196.238 23.78 196.398 23.17 196.718 22.61C197.058 22.03 197.548 21.56 198.188 21.2C198.848 20.84 199.658 20.66 200.618 20.66C201.478 20.66 202.248 20.77 202.928 20.99C203.608 21.19 204.248 21.53 204.848 22.01L203.738 23.75C203.378 23.37 202.948 23.09 202.448 22.91C201.948 22.73 201.498 22.63 201.098 22.61C200.758 22.59 200.428 22.64 200.108 22.76C199.808 22.88 199.558 23.05 199.358 23.27C199.158 23.49 199.058 23.75 199.058 24.05C199.058 24.47 199.198 24.81 199.478 25.07C199.758 25.33 200.118 25.54 200.558 25.7C201.018 25.84 201.468 25.99 201.908 26.15C202.528 26.33 203.078 26.57 203.558 26.87C204.038 27.17 204.418 27.54 204.698 27.98C204.998 28.42 205.148 28.97 205.148 29.63C205.148 30.37 204.968 31.06 204.608 31.7C204.268 32.32 203.738 32.82 203.018 33.2C202.318 33.56 201.418 33.74 200.318 33.74Z" fill="black"/>
<defs>
<linearGradient id="paint0_linear_197402_16" x1="20" y1="0.5" x2="20" y2="40.5" gradientUnits="userSpaceOnUse">
<stop offset="0.677083" stop-color="#FD8325"/>
<stop offset="1" stop-color="#FC6621"/>
</linearGradient>
</defs>
</svg>
